<svg width="24" height="24" viewBox="0 0 24 24" fill="none" xmlns="http://www.w3.org/2000/svg">
<path d="M12 1.48462C12.6574 1.48463 13.2293 1.90621 14.3731 2.74927L16.0938 4.01782C16.2738 4.15051 16.3643 4.21689 16.461 4.27271C16.5576 4.32852 16.6604 4.3736 16.8653 4.46313L18.8242 5.31958C20.1264 5.88866 20.7778 6.17307 21.1065 6.74243C21.4352 7.31177 21.3565 8.0178 21.1983 9.42993L20.96 11.5549C20.9351 11.7772 20.9229 11.8886 20.9229 12.0002C20.9229 12.1119 20.9351 12.2232 20.96 12.4456L21.1983 14.5696C21.3565 15.9818 21.4352 16.6887 21.1065 17.2581C20.7777 17.8272 20.1262 18.1119 18.8242 18.6809L16.8653 19.5364C16.6603 19.626 16.5577 19.671 16.461 19.7268C16.3643 19.7826 16.2739 19.8499 16.0938 19.9827L14.3731 21.2502C13.2292 22.0934 12.6575 22.5159 12 22.5159C11.3426 22.5159 10.7709 22.0934 9.62698 21.2502L7.9053 19.9827C7.72524 19.8499 7.63576 19.7826 7.53909 19.7268C7.44235 19.671 7.33895 19.626 7.13382 19.5364L5.17581 18.6809C3.8739 18.1119 3.22236 17.8272 2.89358 17.2581C2.56486 16.6887 2.64354 15.9818 2.80178 14.5696L3.04007 12.4456C3.06498 12.2232 3.07716 12.1119 3.07717 12.0002C3.07717 11.8886 3.06497 11.7772 3.04007 11.5549L2.80178 9.42993C2.64355 8.01778 2.56487 7.31177 2.89358 6.74243C3.2223 6.17308 3.87366 5.88865 5.17581 5.31958L7.13382 4.46313C7.33895 4.37349 7.44235 4.32856 7.53909 4.27271C7.63564 4.21693 7.72552 4.15033 7.9053 4.01782L9.62698 2.74927C10.7707 1.90622 11.3426 1.48462 12 1.48462ZM12 8.00024C9.79089 8.00024 8.00003 9.79111 8.00003 12.0002C8.00014 14.2093 9.79096 16.0002 12 16.0002C14.2091 16.0002 15.9999 14.2093 16 12.0002C16 9.79111 14.2092 8.00026 12 8.00024Z" fill="#0E0E10"/>
</svg>
